# xmcd
#
# Track frame offsets: 
#        150
#        20325
#        37118
#        52685
#        67228
#        83958
#        98660
#        114440
#        129823
#        146218
#        159863
#        178033
#        190738
#
# Disc length: 2747 seconds
#
# Revision: 1
# Processed by: cddbd v1.5.2PL0 Copyright (c) Steve Scherf et al.
# Submitted via: ExactAudioCopy v0.99pb4
#
DISCID=a60ab90d
DTITLE=Moonshine Willy - Pecadores
DYEAR=1900
DGENRE=Country
TTITLE0=Lucy and Jack
TTITLE1=18 Wheels
TTITLE2=Bare Bones
TTITLE3=Baby Alive
TTITLE4=You're The Reason Our Kids Are Ugly
TTITLE5=Pony
TTITLE6=Too Tired To Live (Too Lazy To Die)
TTITLE7=Doghouse
TTITLE8=Red Cross
TTITLE9=Daddy Cried
TTITLE10=Case Of The Flu
TTITLE11=Jackson
TTITLE12=Great Atomic Power
EXTD=
EXTT0=
EXTT1=
EXTT2=
EXTT3=
EXTT4=
EXTT5=
EXTT6=
EXTT7=
EXTT8=
EXTT9=
EXTT10=
EXTT11=
EXTT12=
PLAYORDER=
